<svg width="48" height="41" fill="none" xmlns="http://www.w3.org/2000/svg"><g clip-path="url(#clip0_10_1281)"><mask id="a" style="mask-type:luminance" maskUnits="userSpaceOnUse" x="0" y="0" width="48" height="41"><path d="M48 0H0v41h48V0z" fill="#fff"/></mask><g mask="url(#a)"><path d="M15.895 7.963H7.947v15.781h7.948V7.963zm15.905 0h-7.948v15.781h7.947V7.963zM23.85 0h-7.948v7.963h7.948V0zm23.84 7.963h-7.948v15.781h7.948V7.963zM39.747 0h-7.948v7.963h7.948V0z" fill="#fff"/><path d="M7.948 0H0v7.963h7.948V0z" fill="#00ADB4"/><path d="M8.07 41v-8.31h2.442v1.303l1.443-1.303h2.902l1.396 1.415 1.57-1.414h2.902l1.76 1.779V41h-2.443v-6.1l-.602-.62h-1.252l-1.57 1.429V41h-2.442v-6.1l-.603-.62H12.32l-1.808 1.667V41H8.07zm18.092 0l-1.76-1.764V34.47l1.76-1.763h4.647l1.776 1.763v4.766L30.81 41h-4.647zm1.301-1.575h2.046l.631-.632-.015-3.892-.62-.636-2.044.016-.635.62.016 3.892.621.632zM34.585 41v-1.812h4.409l.54-.536v-.43l-.588-.603h-3.14l-1.646-1.576v-1.78l1.634-1.556h5.31v1.795h-4.061l-.491.524v.301l.571.589h3.171l1.652 1.557v1.952l-1.634 1.573-5.727.002zm10.876 0l-1.649-1.557v-5.084h-.619v-1.652h.715l.701-2.21h1.65v2.21h1.379v1.652h-1.384v4.353l.54.556h1.205V41H45.46z" fill="#fff"/></g></g><defs><clipPath id="clip0_10_1281"><path fill="#fff" d="M0 0h48v41H0z"/></clipPath></defs></svg>