<svg width="19" height="18" fill="none" xmlns="http://www.w3.org/2000/svg"><g clip-path="url(#clip0_13_286)"><path d="M4.561 13.153C.382 8.974-1.946 5.273 2.111.853a3 3 0 014.242 0l1.87 2.55a3.423 3.423 0 01.258 3.821l-.006-.007c-.744.7-.722.693.044 1.459l.777.873c.744.788.759.788 1.458.044l-.009-.01a3.153 3.153 0 013.777.264l2.619 1.889a3 3 0 010 4.243c-4.418 4.059-8.401 1.352-12.58-2.826zm11.17 1.414a1 1 0 000-1.414l-2.618-1.89a1.4 1.4 0 00-.926-.241l.009.009c-1.791 1.835-2.453 1.746-4.375-.132l-1.05-1.194c-1.835-1.878-1.518-2.087.272-3.922a1.342 1.342 0 00-.227-.962l-1.87-2.549a1 1 0 00-1.414 0l-.008-.009c-2.7 3.017-.924 6.1 2.453 9.477 3.377 3.377 6.748 5.54 9.765 2.837l-.011-.01z" fill="#fff"/></g><defs><clipPath id="clip0_13_286"><path fill="#fff" d="M0 0h18.031v17.969H0z"/></clipPath></defs></svg>