<?xml version="1.0" encoding="utf-8"?><svg viewBox="0 0 48 41" xmlns="http://www.w3.org/2000/svg" xmlns:xlink="http://www.w3.org/1999/xlink"><style>:root>svg{display:none}:root>svg:target{display:block}</style><svg fill="none" viewBox="0 0 48 41" id="logo" xmlns="http://www.w3.org/2000/svg"><g clip-path="url(#aa)"><mask id="ab" style="mask-type:luminance" maskUnits="userSpaceOnUse" x="0" y="0" width="48" height="41"><path d="M48 0H0v41h48V0Z" fill="#fff"/></mask><g mask="url(#ab)"><path d="M15.895 7.963H7.947v15.781h7.948V7.963ZM31.8 7.963h-7.948v15.781h7.947V7.963ZM23.85 0h-7.948v7.963h7.948V0ZM47.69 7.963h-7.948v15.781h7.948V7.963ZM39.747 0h-7.948v7.963h7.948V0Z" fill="#fff"/><path d="M7.948 0H0v7.963h7.948V0Z" fill="#00ADB4"/><path d="M8.07 41v-8.31h2.442v1.303l1.443-1.303h2.902l1.396 1.415 1.57-1.414h2.902l1.76 1.779V41h-2.443v-6.1l-.602-.62h-1.252l-1.57 1.429V41h-2.442v-6.1l-.603-.62H12.32l-1.808 1.667V41H8.07ZM26.162 41l-1.76-1.764V34.47l1.76-1.763h4.647l1.776 1.763v4.766L30.81 41h-4.647Zm1.301-1.575h2.046l.631-.632-.015-3.892-.62-.636-2.044.016-.635.62.016 3.892.621.632ZM34.585 41v-1.812h4.409l.54-.536v-.43l-.588-.603h-3.14l-1.646-1.576v-1.78l1.634-1.556h5.31v1.795h-4.061l-.491.524v.301l.571.589h3.171l1.652 1.557v1.952l-1.634 1.573-5.727.002ZM45.461 41l-1.649-1.557v-5.084h-.619v-1.652h.715l.701-2.21h1.65v2.21h1.379v1.652h-1.384v4.353l.54.556h1.205V41H45.46Z" fill="#fff"/></g></g><defs><clipPath id="aa"><path fill="#fff" d="M0 0h48v41H0z"/></clipPath></defs></svg><svg fill="none" viewBox="0 0 19 18" id="phone" xmlns="http://www.w3.org/2000/svg"><g clip-path="url(#ba)"><path d="M4.561 13.153C.382 8.974-1.946 5.273 2.111.853a3 3 0 0 1 4.242 0l1.87 2.55a3.423 3.423 0 0 1 .258 3.821l-.006-.007c-.744.7-.722.693.044 1.459l.777.873c.744.788.759.788 1.458.044l-.009-.01a3.153 3.153 0 0 1 3.777.264l2.619 1.889a3 3 0 0 1 0 4.243c-4.418 4.059-8.401 1.352-12.58-2.826Zm11.17 1.414a1 1 0 0 0 0-1.414l-2.618-1.89a1.4 1.4 0 0 0-.926-.241l.009.009c-1.791 1.835-2.453 1.746-4.375-.132l-1.05-1.194c-1.835-1.878-1.518-2.087.272-3.922a1.342 1.342 0 0 0-.227-.962l-1.87-2.549a1 1 0 0 0-1.414 0l-.008-.009c-2.7 3.017-.924 6.1 2.453 9.477 3.377 3.377 6.748 5.54 9.765 2.837l-.011-.01Z" fill="#fff"/></g><defs><clipPath id="ba"><path fill="#fff" d="M0 0h18.031v17.969H0z"/></clipPath></defs></svg></svg>